# xmcd
#
# Track frame offsets: 
#        150
#        15615
#        37608
#        52108
#        65428
#        88980
#        104839
#        119338
#        133474
#        150929
#
# Disc length: 2248 seconds
#
# Revision: 0
# Processed by: cddbd v1.5.2PL0 Copyright (c) Steve Scherf et al.
# Submitted via: ExactAudioCopy v0.99pb4
#
DISCID=8708c60a
DTITLE=Tim Lothar Petersen - Cut to the Bone
DYEAR=2006
DGENRE=Blues
TTITLE0=Easy Baby
TTITLE1=High Sheriff Blues
TTITLE2=Don't Hesitate
TTITLE3=Bound to Go
TTITLE4=Highway 424
TTITLE5=M and O Blues
TTITLE6=Backdoor Business
TTITLE7=Baby Blue
TTITLE8=Katrina
TTITLE9=Amalina
EXTD=
EXTT0=
EXTT1=
EXTT2=
EXTT3=
EXTT4=
EXTT5=
EXTT6=
EXTT7=
EXTT8=
EXTT9=
PLAYORDER=
